<svg width="1024" height="1024" viewBox="0 0 1024 1024" fill="none" xmlns="http://www.w3.org/2000/svg">
  <!-- Background Circle -->
  <circle cx="512" cy="512" r="512" fill="url(#gradient)" />
  
  <!-- Main Icon Container -->
  <g transform="translate(256, 256)">
    <!-- Receipt Background -->
    <rect x="64" y="32" width="384" height="480" rx="24" fill="white" fill-opacity="0.95" />
    
    <!-- Receipt Header -->
    <rect x="96" y="64" width="320" height="48" rx="8" fill="#3B82F6" fill-opacity="0.1" />
    
    <!-- Receipt Lines -->
    <rect x="96" y="144" width="240" height="8" rx="4" fill="#6B7280" fill-opacity="0.3" />
    <rect x="96" y="168" width="180" height="8" rx="4" fill="#6B7280" fill-opacity="0.3" />
    <rect x="96" y="192" width="200" height="8" rx="4" fill="#6B7280" fill-opacity="0.3" />
    
    <!-- Amount Section -->
    <rect x="96" y="232" width="160" height="8" rx="4" fill="#6B7280" fill-opacity="0.3" />
    <rect x="96" y="256" width="120" height="8" rx="4" fill="#6B7280" fill-opacity="0.3" />
    <rect x="96" y="280" width="140" height="8" rx="4" fill="#6B7280" fill-opacity="0.3" />
    
    <!-- Total Line -->
    <rect x="96" y="320" width="320" height="2" fill="#3B82F6" fill-opacity="0.3" />
    <rect x="96" y="340" width="80" height="12" rx="6" fill="#3B82F6" />
    <rect x="280" y="340" width="136" height="12" rx="6" fill="#10B981" />
    
    <!-- Split Icon -->
    <g transform="translate(160, 380)">
      <!-- Three Circles representing people -->
      <circle cx="32" cy="32" r="24" fill="#3B82F6" />
      <circle cx="96" cy="32" r="24" fill="#10B981" />
      <circle cx="160" cy="32" r="24" fill="#F59E0B" />
      
      <!-- Connection lines -->
      <line x1="56" y1="32" x2="72" y2="32" stroke="#6B7280" stroke-width="3" stroke-linecap="round" />
      <line x1="120" y1="32" x2="136" y2="32" stroke="#6B7280" stroke-width="3" stroke-linecap="round" />
    </g>
    
    <!-- Currency Symbol -->
    <g transform="translate(360, 144)">
      <circle cx="24" cy="24" r="20" fill="#10B981" />
      <text x="24" y="30" text-anchor="middle" fill="white" font-family="Arial, sans-serif" font-size="16" font-weight="bold">₹</text>
    </g>
  </g>
  
  <!-- Gradient Definition -->
  <defs>
    <linearGradient id="gradient" x1="0%" y1="0%" x2="100%" y2="100%">
      <stop offset="0%" style="stop-color:#3B82F6;stop-opacity:1" />
      <stop offset="50%" style="stop-color:#1D4ED8;stop-opacity:1" />
      <stop offset="100%" style="stop-color:#1E40AF;stop-opacity:1" />
    </linearGradient>
  </defs>
</svg>